<svg version="1.0" xmlns="http://www.w3.org/2000/svg"
 viewBox="0 0 155.000000 76.000000"
 preserveAspectRatio="xMidYMid meet">
<defs>
    <linearGradient id="Gradient1" x1="0%" y1="0%" x2="100%" y2="0%">
        <stop offset="0%" stop-color="green"/>
        <stop offset="100%" stop-color="green"/>
    </linearGradient>

    <linearGradient id="Gradient2" x1="0%" y1="0%" x2="100%" y2="0%">
        <stop offset="0%" stop-color="green"/>
        <stop offset="100%" stop-color="green"/>
    </linearGradient>

    <linearGradient id="Gradient3" x1="0%" y1="0%" x2="100%" y2="0%">
        <stop offset="0%" stop-color="green"/>
        <stop offset="100%" stop-color="#00a600"/>
    </linearGradient>

    <linearGradient id="Gradient4" x1="0%" y1="0%" x2="100%" y2="0%">
        <stop offset="0%" stop-color="#00a600"/>
        <stop offset="100%" stop-color="#48a600"/>
    </linearGradient>

    <linearGradient id="Gradient5" x1="0%" y1="0%" x2="100%" y2="0%">
        <stop offset="0%" stop-color="#48a600"/>
        <stop offset="100%" stop-color="#74a600"/>
    </linearGradient>

    <linearGradient id="Gradient6" x1="0%" y1="0%" x2="100%" y2="0%">
        <stop offset="0%" stop-color="#74a600"/>
        <stop offset="100%" stop-color="#a8b800"/>
    </linearGradient>

    <linearGradient id="Gradient7" x1="0%" y1="0%" x2="100%" y2="0%">
        <stop offset="0%" stop-color="#a8b800"/>
        <stop offset="100%" stop-color="yellow"/>
    </linearGradient>

    <linearGradient id="Gradient8" x1="0%" y1="0%" x2="100%" y2="0%">
        <stop offset="0%" stop-color="yellow"/>
        <stop offset="100%" stop-color="#d18400"/>
    </linearGradient>

    <linearGradient id="Gradient9" x1="0%" y1="0%" x2="100%" y2="0%">
        <stop offset="0%" stop-color="#e38100"/>
        <stop offset="100%" stop-color="#e35700"/>
    </linearGradient>

    <linearGradient id="Gradient10" x1="0%" y1="0%" x2="100%" y2="0%">
        <stop offset="0%" stop-color="#e35700"/>
        <stop offset="100%" stop-color="red"/>
    </linearGradient>
</defs>

<g transform="translate(0.000000,76.000000) scale(0.100000,-0.100000)"
 stroke="none">
<path class="bar" id="bar1" fill="url(#Gradient1)" d="M21 148 c-5 -29 -13 -74 -17 -101 l-6 -47 35 0 34 0 7 61 c4 33 12
72 17 87 11 29 5 38 -33 47 -25 6 -27 4 -37 -47z"/>
<path class="bar" id="bar2" fill="url(#Gradient2)" d="M116 377 c-32 -54 -69 -137 -64 -143 3 -2 18 -6 34 -10 27 -5 31 -2
47 34 10 22 29 56 42 77 14 20 25 37 25 39 0 1 -13 12 -30 24 l-29 22 -25 -43z"/>
<path class="bar" id="bar3" fill="url(#Gradient3)" d="M231 525 c-34 -36 -61 -70 -59 -76 2 -6 15 -18 30 -26 26 -16 27 -16
91 43 l65 59 -22 29 c-13 17 -27 31 -33 33 -5 2 -38 -26 -72 -62z"/>
<path class="bar" id="bar4" fill="url(#Gradient4)" d="M428 670 c-42 -22 -79 -43 -82 -48 -2 -4 5 -23 16 -41 23 -36 19 -36
121 6 60 24 67 30 62 50 -10 40 -24 73 -32 73 -5 -1 -43 -19 -85 -40z"/>
<path class="bar" id="bar5" fill="url(#Gradient5)" d="M625 738 c-27 -5 -54 -13 -59 -18 -5 -5 -4 -28 4 -56 l13 -46 45 6
c25 3 64 6 88 6 l44 0 0 60 0 60 -42 -1 c-24 -1 -65 -6 -93 -11z"/>
<path class="bar" id="bar6" fill="url(#Gradient6)" d="M795 752 c-3 -3 -5 -31 -5 -63 0 -56 1 -59 28 -64 15 -3 51 -12 80
-19 29 -7 55 -10 58 -5 13 22 42 119 36 123 -19 11 -189 35 -197 28z"/>
<path class="bar" id="bar7" fill="url(#Gradient7)" d="M1010 644 c-12 -36 -20 -66 -19 -68 15 -10 131 -76 134 -76 3 0 23
25 45 56 32 42 39 58 30 69 -10 12 -149 85 -162 85 -4 0 -16 -30 -28 -66z"/>
<path class="bar" id="bar8" fill="url(#Gradient8)" d="M1197 532 l-44 -57 51 -58 c28 -31 55 -57 59 -57 15 0 117 82 117 94
0 12 -120 136 -132 136 -4 0 -27 -26 -51 -58z"/>
<path class="bar" id="bar9" fill="url(#Gradient9)" d="M1364 387 c-22 -18 -51 -39 -63 -47 l-22 -15 31 -67 c18 -38 37 -68
43 -68 28 0 147 45 147 56 0 17 -80 174 -88 173 -4 0 -25 -14 -48 -32z"/>
<path class="bar" id="bar10" fill="url(#Gradient10)" d="M1422 173 c-73 -25 -74 -26 -68 -56 3 -16 6 -49 6 -73 l0 -44 90 0
90 0 0 49 c0 63 -20 151 -34 150 -6 -1 -44 -12 -84 -26z"/>
</g>
</svg>
